<?xml version="1.0" encoding="utf-8"?>
<!-- Generator: Adobe Illustrator 24.1.0, SVG Export Plug-In . SVG Version: 6.00 Build 0)  -->
<svg version="1.1" id="Layer_1" xmlns="http://www.w3.org/2000/svg" xmlns:xlink="http://www.w3.org/1999/xlink" x="0px" y="0px"
	 viewBox="0 0 386.1 572.1" style="enable-background:new 0 0 386.1 572.1;" xml:space="preserve">
<style type="text/css">
	.st0{clip-path:url(#SVGID_2_);fill:none;stroke:#000000;}
	.st1{clip-path:url(#SVGID_2_);}
</style>
<g>
	<defs>
		<rect id="SVGID_1_" x="13.1" y="13.1" width="360" height="546"/>
	</defs>
	<clipPath id="SVGID_2_">
		<use xlink:href="#SVGID_1_"  style="overflow:visible;"/>
	</clipPath>
	<circle class="st0" cx="100.1" cy="100.1" r="86.5"/>
	<circle class="st0" cx="146.6" cy="286.1" r="86.5"/>
	<circle class="st0" cx="193.1" cy="472.1" r="86.5"/>
	<circle class="st0" cx="286.1" cy="100.1" r="86.5"/>
	<circle class="st0" cx="239.6" cy="286.1" r="86.5"/>
	<circle class="st0" cx="193.1" cy="472.1" r="86.5"/>
	<path class="st1" d="M135,93.6v11.9h-0.4l-6.7-11.9h-2.8v14.3h1.8V95.9h0.4l6.7,11.9h2.8V93.6H135z M115.8,100.3v1.6h4.4v0.3
		c0,0.6-0.1,1.1-0.2,1.6c-0.2,0.5-0.4,1-0.7,1.4c-0.3,0.4-0.8,0.7-1.3,1c-0.5,0.2-1.2,0.4-1.9,0.4c-0.8,0-1.6-0.2-2.2-0.5
		c-0.6-0.3-1.1-0.7-1.5-1.3c-0.4-0.5-0.7-1.1-0.9-1.8c-0.2-0.7-0.3-1.4-0.3-2.2c0-0.8,0.1-1.5,0.3-2.2c0.2-0.7,0.5-1.3,0.9-1.8
		s0.9-0.9,1.5-1.3c0.6-0.3,1.3-0.5,2.2-0.5c1,0,1.8,0.2,2.4,0.6c0.6,0.4,1,1,1.2,1.7h1.9c-0.3-1.2-0.9-2.2-1.8-2.9
		c-1-0.7-2.2-1-3.7-1c-1.1,0-2,0.2-2.9,0.6c-0.8,0.4-1.5,0.9-2.1,1.6c-0.6,0.7-1,1.4-1.3,2.3c-0.3,0.9-0.4,1.9-0.4,2.9
		c0,1,0.1,2,0.4,2.9c0.3,0.9,0.7,1.7,1.3,2.4c0.6,0.7,1.2,1.2,2.1,1.6c0.8,0.4,1.8,0.6,2.9,0.6s2-0.2,2.8-0.5
		c0.8-0.4,1.4-0.8,1.9-1.4c0.5-0.6,0.8-1.3,1-2c0.2-0.8,0.3-1.6,0.3-2.4v-1.4H115.8z M104.6,107.8h1.8V93.6h-1.8V107.8z M95.2,99.4
		c-0.3-0.1-0.6-0.1-0.9-0.2c-0.3-0.1-0.5-0.2-0.8-0.4s-0.4-0.4-0.5-0.6c-0.1-0.2-0.2-0.5-0.2-0.9c0-0.4,0.1-0.7,0.2-1
		c0.2-0.3,0.4-0.5,0.7-0.7c0.3-0.2,0.6-0.4,1-0.4c0.4-0.1,0.8-0.2,1.2-0.2c1,0,1.8,0.2,2.3,0.6c0.5,0.4,0.9,0.9,1.1,1.6h1.8
		c-0.1-0.6-0.3-1.1-0.5-1.6c-0.3-0.5-0.6-0.9-1.1-1.2c-0.4-0.3-1-0.6-1.6-0.8c-0.6-0.2-1.3-0.3-2-0.3c-0.8,0-1.5,0.1-2.2,0.3
		c-0.6,0.2-1.2,0.5-1.6,0.9s-0.7,0.8-1,1.3s-0.3,1-0.3,1.5c0,1.1,0.3,2,1,2.6c0.7,0.6,1.6,1,2.7,1.2l2.5,0.5c0.4,0.1,0.7,0.2,1,0.3
		s0.6,0.3,0.8,0.5c0.2,0.2,0.4,0.4,0.5,0.7c0.1,0.3,0.2,0.6,0.2,1c0,0.4-0.1,0.8-0.3,1.1s-0.4,0.6-0.7,0.8c-0.3,0.2-0.7,0.4-1.1,0.5
		c-0.4,0.1-0.9,0.2-1.4,0.2c-0.5,0-1,0-1.4-0.1c-0.4-0.1-0.8-0.2-1.2-0.4c-0.4-0.2-0.7-0.5-0.9-0.8c-0.2-0.3-0.4-0.7-0.5-1.2h-1.8
		c0.1,0.6,0.2,1.2,0.5,1.7c0.3,0.5,0.7,1,1.2,1.3c0.5,0.4,1.1,0.7,1.8,0.9s1.4,0.3,2.3,0.3c0.9,0,1.7-0.1,2.4-0.4
		c0.7-0.2,1.2-0.6,1.7-1c0.4-0.4,0.8-0.8,1-1.4c0.2-0.5,0.3-1,0.3-1.6c0-0.6-0.1-1.1-0.3-1.6c-0.2-0.5-0.4-0.8-0.8-1.2
		c-0.3-0.3-0.7-0.6-1.2-0.8s-1-0.3-1.5-0.5L95.2,99.4z M80,106.2v-4.9h6.6v-1.6H80v-4.4h8.1v-1.6h-9.9v14.3h10.3v-1.6H80z
		 M65.1,106.2v-11h3.5c0.9,0,1.6,0.1,2.2,0.4c0.6,0.3,1.1,0.7,1.5,1.2c0.4,0.5,0.7,1.1,0.8,1.8s0.3,1.4,0.3,2.1s-0.1,1.5-0.3,2.1
		s-0.4,1.2-0.8,1.8c-0.4,0.5-0.9,0.9-1.5,1.2c-0.6,0.3-1.3,0.4-2.2,0.4H65.1z M63.3,93.6v14.3h5.3c1.1,0,2.1-0.2,2.9-0.5
		c0.8-0.3,1.5-0.8,2.1-1.5c0.5-0.6,1-1.4,1.2-2.3c0.3-0.9,0.4-1.9,0.4-2.9c0-1.1-0.1-2.1-0.4-2.9c-0.3-0.9-0.7-1.6-1.2-2.2
		c-0.5-0.6-1.2-1.1-2.1-1.5c-0.8-0.3-1.8-0.5-2.9-0.5H63.3z"/>
	<path class="st1" d="M181.5,279.6v11.9h-0.4l-6.7-11.9h-2.8v14.3h1.8v-11.9h0.4l6.7,11.9h2.8v-14.3H181.5z M162.3,286.3v1.6h4.4
		v0.3c0,0.6-0.1,1.1-0.2,1.6c-0.2,0.5-0.4,1-0.7,1.4c-0.3,0.4-0.8,0.7-1.3,1c-0.5,0.2-1.2,0.4-1.9,0.4c-0.8,0-1.6-0.2-2.2-0.5
		c-0.6-0.3-1.1-0.7-1.5-1.3c-0.4-0.5-0.7-1.1-0.9-1.8c-0.2-0.7-0.3-1.4-0.3-2.2c0-0.8,0.1-1.5,0.3-2.2c0.2-0.7,0.5-1.3,0.9-1.8
		c0.4-0.5,0.9-0.9,1.5-1.3c0.6-0.3,1.3-0.5,2.2-0.5c1,0,1.8,0.2,2.4,0.6s1,1,1.2,1.7h1.9c-0.3-1.2-0.9-2.2-1.9-2.9
		c-1-0.7-2.2-1-3.7-1c-1.1,0-2,0.2-2.9,0.6c-0.8,0.4-1.5,0.9-2.1,1.6c-0.6,0.7-1,1.4-1.3,2.3c-0.3,0.9-0.4,1.9-0.4,2.9
		c0,1,0.1,2,0.4,2.9c0.3,0.9,0.7,1.7,1.3,2.4c0.6,0.7,1.2,1.2,2.1,1.6c0.8,0.4,1.8,0.6,2.9,0.6c1.1,0,2-0.2,2.8-0.5
		c0.8-0.4,1.4-0.8,1.9-1.4c0.5-0.6,0.8-1.3,1.1-2c0.2-0.8,0.3-1.6,0.3-2.4v-1.4H162.3z M151.1,293.8h1.8v-14.3h-1.8V293.8z
		 M141.7,285.4c-0.3-0.1-0.6-0.1-0.9-0.2c-0.3-0.1-0.5-0.2-0.8-0.4s-0.4-0.4-0.5-0.6c-0.1-0.2-0.2-0.5-0.2-0.9c0-0.4,0.1-0.7,0.2-1
		c0.2-0.3,0.4-0.5,0.7-0.7c0.3-0.2,0.6-0.4,1-0.4c0.4-0.1,0.8-0.2,1.2-0.2c1,0,1.8,0.2,2.4,0.6c0.5,0.4,0.9,0.9,1,1.6h1.8
		c-0.1-0.6-0.3-1.1-0.5-1.6c-0.3-0.5-0.6-0.9-1.1-1.2c-0.4-0.3-1-0.6-1.6-0.8c-0.6-0.2-1.3-0.3-2-0.3c-0.8,0-1.5,0.1-2.2,0.3
		c-0.6,0.2-1.2,0.5-1.6,0.9s-0.7,0.8-1,1.3c-0.2,0.5-0.3,1-0.3,1.5c0,1.1,0.3,2,1,2.6c0.7,0.6,1.6,1,2.7,1.2l2.5,0.5
		c0.4,0.1,0.7,0.2,1,0.3c0.3,0.1,0.6,0.3,0.8,0.5c0.2,0.2,0.4,0.4,0.5,0.7c0.1,0.3,0.2,0.6,0.2,1c0,0.4-0.1,0.8-0.3,1.1
		c-0.2,0.3-0.4,0.6-0.7,0.8c-0.3,0.2-0.7,0.4-1.1,0.5c-0.4,0.1-0.9,0.2-1.4,0.2c-0.5,0-1,0-1.4-0.1c-0.4-0.1-0.8-0.2-1.2-0.4
		c-0.4-0.2-0.7-0.5-0.9-0.8c-0.2-0.3-0.4-0.7-0.5-1.2h-1.8c0.1,0.6,0.2,1.2,0.5,1.7c0.3,0.5,0.7,1,1.2,1.3c0.5,0.4,1.1,0.7,1.8,0.9
		c0.7,0.2,1.4,0.3,2.3,0.3c0.9,0,1.7-0.1,2.4-0.4c0.7-0.2,1.2-0.6,1.7-1c0.4-0.4,0.8-0.8,1-1.4c0.2-0.5,0.3-1,0.3-1.6
		c0-0.6-0.1-1.1-0.3-1.6c-0.2-0.5-0.4-0.8-0.8-1.2c-0.3-0.3-0.7-0.6-1.2-0.8c-0.5-0.2-1-0.3-1.5-0.5L141.7,285.4z M126.5,292.2v-4.9
		h6.6v-1.6h-6.6v-4.4h8.1v-1.6h-9.9v14.3H135v-1.6H126.5z M111.6,292.2v-11h3.5c0.9,0,1.6,0.1,2.2,0.4s1.1,0.7,1.5,1.2
		c0.4,0.5,0.7,1.1,0.8,1.8c0.2,0.7,0.3,1.4,0.3,2.1s-0.1,1.5-0.3,2.1c-0.2,0.7-0.4,1.2-0.8,1.8c-0.4,0.5-0.9,0.9-1.5,1.2
		s-1.3,0.4-2.2,0.4H111.6z M109.8,279.6v14.3h5.3c1.1,0,2.1-0.2,2.9-0.5c0.8-0.3,1.5-0.8,2.1-1.5c0.5-0.6,1-1.4,1.2-2.3
		c0.3-0.9,0.4-1.9,0.4-2.9c0-1.1-0.1-2.1-0.4-2.9c-0.3-0.9-0.7-1.6-1.2-2.2c-0.5-0.6-1.2-1.1-2.1-1.5c-0.8-0.3-1.8-0.5-2.9-0.5
		H109.8z"/>
	<path class="st1" d="M228,465.6v11.9h-0.4l-6.7-11.9h-2.8v14.3h1.8v-11.9h0.4l6.7,11.9h2.8v-14.3H228z M208.8,472.3v1.6h4.4v0.3
		c0,0.6-0.1,1.1-0.2,1.6c-0.2,0.5-0.4,1-0.7,1.4c-0.3,0.4-0.8,0.7-1.3,0.9c-0.5,0.2-1.2,0.4-1.9,0.4c-0.8,0-1.6-0.2-2.2-0.5
		c-0.6-0.3-1.1-0.7-1.5-1.3c-0.4-0.5-0.7-1.1-0.9-1.8c-0.2-0.7-0.3-1.4-0.3-2.2c0-0.8,0.1-1.5,0.3-2.2c0.2-0.7,0.5-1.3,0.9-1.8
		c0.4-0.5,0.9-0.9,1.5-1.3c0.6-0.3,1.3-0.5,2.2-0.5c1,0,1.8,0.2,2.4,0.6c0.6,0.4,1,1,1.2,1.7h1.9c-0.3-1.2-0.9-2.2-1.9-2.9
		c-1-0.7-2.2-1-3.7-1c-1.1,0-2,0.2-2.9,0.6c-0.8,0.4-1.5,0.9-2.1,1.6c-0.6,0.7-1,1.4-1.3,2.3c-0.3,0.9-0.4,1.9-0.4,2.9
		c0,1,0.1,2,0.4,2.9c0.3,0.9,0.7,1.7,1.3,2.4c0.6,0.7,1.2,1.2,2.1,1.6c0.8,0.4,1.8,0.6,2.9,0.6c1.1,0,2-0.2,2.8-0.5
		c0.8-0.4,1.4-0.8,1.9-1.4c0.5-0.6,0.8-1.3,1.1-2c0.2-0.8,0.3-1.6,0.3-2.4v-1.4H208.8z M197.6,479.8h1.8v-14.3h-1.8V479.8z
		 M188.2,471.4c-0.3-0.1-0.6-0.1-0.9-0.2c-0.3-0.1-0.5-0.2-0.8-0.4c-0.2-0.2-0.4-0.4-0.5-0.6c-0.1-0.2-0.2-0.5-0.2-0.9
		c0-0.4,0.1-0.7,0.2-1c0.2-0.3,0.4-0.5,0.7-0.7c0.3-0.2,0.6-0.4,1-0.5c0.4-0.1,0.8-0.1,1.2-0.1c1,0,1.8,0.2,2.4,0.6
		c0.5,0.4,0.9,0.9,1,1.6h1.8c-0.1-0.6-0.3-1.1-0.5-1.6c-0.3-0.5-0.6-0.9-1.1-1.2s-1-0.6-1.6-0.8c-0.6-0.2-1.3-0.3-2-0.3
		c-0.8,0-1.5,0.1-2.2,0.3c-0.6,0.2-1.2,0.5-1.6,0.9s-0.7,0.8-1,1.3c-0.2,0.5-0.3,1-0.3,1.6c0,1.1,0.3,2,1,2.5c0.7,0.6,1.6,1,2.7,1.2
		l2.5,0.5c0.4,0.1,0.7,0.2,1,0.3c0.3,0.1,0.6,0.3,0.8,0.5c0.2,0.2,0.4,0.4,0.5,0.7c0.1,0.3,0.2,0.6,0.2,0.9c0,0.4-0.1,0.8-0.3,1.1
		c-0.2,0.3-0.4,0.6-0.7,0.8c-0.3,0.2-0.7,0.4-1.1,0.5c-0.4,0.1-0.9,0.2-1.4,0.2c-0.5,0-1,0-1.4-0.1c-0.4-0.1-0.8-0.2-1.2-0.4
		c-0.4-0.2-0.7-0.5-0.9-0.8c-0.2-0.3-0.4-0.7-0.5-1.2h-1.8c0.1,0.6,0.2,1.2,0.5,1.7c0.3,0.5,0.7,1,1.2,1.3c0.5,0.4,1.1,0.7,1.8,0.9
		c0.7,0.2,1.4,0.3,2.3,0.3c0.9,0,1.7-0.1,2.4-0.4c0.7-0.2,1.2-0.6,1.7-0.9c0.4-0.4,0.8-0.8,1-1.4c0.2-0.5,0.3-1,0.3-1.6
		c0-0.6-0.1-1.1-0.3-1.6c-0.2-0.5-0.4-0.8-0.8-1.2c-0.3-0.3-0.7-0.6-1.2-0.8c-0.5-0.2-1-0.3-1.5-0.4L188.2,471.4z M173,478.2v-4.9
		h6.6v-1.6H173v-4.4h8.1v-1.6h-9.9v14.3h10.3v-1.6H173z M158.1,478.2v-11h3.5c0.9,0,1.6,0.1,2.2,0.4c0.6,0.3,1.1,0.7,1.5,1.2
		c0.4,0.5,0.7,1.1,0.8,1.8c0.2,0.7,0.3,1.4,0.3,2.1c0,0.7-0.1,1.5-0.3,2.1c-0.2,0.7-0.4,1.2-0.8,1.8c-0.4,0.5-0.9,0.9-1.5,1.2
		c-0.6,0.3-1.3,0.4-2.2,0.4H158.1z M156.3,465.6v14.3h5.3c1.1,0,2.1-0.2,2.9-0.5c0.8-0.3,1.5-0.8,2.1-1.4c0.5-0.6,1-1.4,1.2-2.3
		s0.4-1.9,0.4-2.9c0-1.1-0.1-2.1-0.4-2.9c-0.3-0.9-0.7-1.6-1.2-2.2c-0.5-0.6-1.2-1.1-2.1-1.4c-0.8-0.3-1.8-0.5-2.9-0.5H156.3z"/>
	<path class="st1" d="M324.9,99.4c-0.3-0.1-0.6-0.1-0.9-0.2c-0.3-0.1-0.5-0.2-0.8-0.4s-0.4-0.4-0.5-0.6c-0.1-0.2-0.2-0.5-0.2-0.9
		c0-0.4,0.1-0.7,0.2-1c0.2-0.3,0.4-0.5,0.7-0.7c0.3-0.2,0.6-0.4,1-0.4c0.4-0.1,0.8-0.2,1.2-0.2c1,0,1.8,0.2,2.4,0.6
		c0.5,0.4,0.9,0.9,1,1.6h1.8c-0.1-0.6-0.3-1.1-0.5-1.6c-0.3-0.5-0.6-0.9-1.1-1.2c-0.4-0.3-1-0.6-1.6-0.8c-0.6-0.2-1.3-0.3-2-0.3
		c-0.8,0-1.5,0.1-2.2,0.3c-0.6,0.2-1.1,0.5-1.6,0.9c-0.4,0.4-0.7,0.8-1,1.3s-0.3,1-0.3,1.5c0,1.1,0.3,2,1,2.6c0.7,0.6,1.6,1,2.7,1.2
		l2.5,0.5c0.4,0.1,0.7,0.2,1,0.3c0.3,0.1,0.6,0.3,0.8,0.5c0.2,0.2,0.4,0.4,0.5,0.7c0.1,0.3,0.2,0.6,0.2,1c0,0.4-0.1,0.8-0.3,1.1
		s-0.4,0.6-0.7,0.8c-0.3,0.2-0.7,0.4-1.1,0.5c-0.4,0.1-0.9,0.2-1.4,0.2c-0.5,0-1,0-1.4-0.1c-0.4-0.1-0.8-0.2-1.2-0.4
		c-0.4-0.2-0.7-0.5-0.9-0.8c-0.2-0.3-0.4-0.7-0.5-1.2h-1.8c0.1,0.6,0.2,1.2,0.5,1.7c0.3,0.5,0.7,1,1.2,1.3c0.5,0.4,1.1,0.7,1.8,0.9
		s1.4,0.3,2.3,0.3c0.9,0,1.7-0.1,2.4-0.4c0.7-0.2,1.2-0.6,1.7-1c0.4-0.4,0.8-0.8,1-1.4c0.2-0.5,0.3-1,0.3-1.6c0-0.6-0.1-1.1-0.3-1.6
		c-0.2-0.5-0.4-0.8-0.8-1.2c-0.3-0.3-0.7-0.6-1.2-0.8s-1-0.3-1.5-0.5L324.9,99.4z M316.2,103.8c-0.2,0.8-0.7,1.5-1.3,2
		c-0.6,0.5-1.5,0.7-2.5,0.7c-0.8,0-1.5-0.2-2.2-0.5c-0.6-0.3-1.1-0.7-1.5-1.3c-0.4-0.5-0.7-1.1-0.9-1.8c-0.2-0.7-0.3-1.4-0.3-2.2
		s0.1-1.5,0.3-2.2c0.2-0.7,0.5-1.3,0.9-1.8c0.4-0.5,0.9-0.9,1.5-1.3c0.6-0.3,1.3-0.5,2.1-0.5c1,0,1.8,0.2,2.3,0.6
		c0.6,0.4,1,1,1.2,1.8h1.9c-0.1-0.6-0.4-1.2-0.7-1.7c-0.3-0.5-0.7-0.9-1.2-1.3c-0.5-0.3-1-0.6-1.6-0.8c-0.6-0.2-1.3-0.3-2-0.3
		c-1.1,0-2,0.2-2.8,0.6c-0.8,0.4-1.5,0.9-2.1,1.5s-1,1.4-1.3,2.4c-0.3,0.9-0.4,1.9-0.4,2.9c0,1.1,0.1,2,0.4,3
		c0.3,0.9,0.7,1.7,1.3,2.3s1.2,1.2,2.1,1.5c0.8,0.4,1.8,0.6,2.8,0.6c0.8,0,1.5-0.1,2.1-0.3c0.6-0.2,1.2-0.5,1.7-0.9
		c0.5-0.4,0.9-0.8,1.2-1.4c0.3-0.5,0.5-1.1,0.7-1.8H316.2z M301,107.8h1.8V93.6H301V107.8z M298.7,93.6h-11.2v1.6h4.7v12.7h1.8V95.2
		h4.7V93.6z M283.4,107.8h1.8V93.6h-1.8V107.8z M272.6,106.1V93.6h-1.8v14.3h9.8v-1.7H272.6z M259,106c-0.6-0.3-1.1-0.7-1.5-1.3
		c-0.4-0.5-0.7-1.1-0.9-1.8c-0.2-0.7-0.3-1.4-0.3-2.2s0.1-1.5,0.3-2.2c0.2-0.7,0.5-1.3,0.9-1.8c0.4-0.5,0.9-1,1.5-1.3
		c0.6-0.3,1.3-0.5,2.2-0.5c0.9,0,1.6,0.2,2.2,0.5c0.6,0.3,1.1,0.7,1.5,1.3c0.4,0.5,0.7,1.1,0.9,1.8c0.2,0.7,0.3,1.4,0.3,2.2
		s-0.1,1.5-0.3,2.2c-0.2,0.7-0.5,1.3-0.9,1.8c-0.4,0.5-0.9,1-1.5,1.3c-0.6,0.3-1.3,0.5-2.2,0.5C260.4,106.5,259.6,106.3,259,106
		 M258.3,93.9c-0.8,0.4-1.5,0.9-2.1,1.6c-0.6,0.7-1,1.4-1.3,2.3c-0.3,0.9-0.4,1.9-0.4,2.9s0.1,2,0.4,2.9c0.3,0.9,0.7,1.7,1.3,2.3
		c0.6,0.7,1.3,1.2,2.1,1.6c0.8,0.4,1.8,0.6,2.9,0.6c1.1,0,2-0.2,2.9-0.6c0.8-0.4,1.5-0.9,2.1-1.6c0.6-0.7,1-1.4,1.3-2.3
		c0.3-0.9,0.4-1.9,0.4-2.9s-0.1-2-0.4-2.9c-0.3-0.9-0.7-1.7-1.3-2.3c-0.6-0.7-1.3-1.2-2.1-1.6c-0.8-0.4-1.8-0.6-2.9-0.6
		C260.1,93.3,259.2,93.5,258.3,93.9 M243.3,100.5v-5.4h3.9c0.6,0,1.1,0.1,1.6,0.2c0.4,0.1,0.8,0.3,1,0.5c0.3,0.2,0.4,0.5,0.6,0.8
		c0.1,0.3,0.2,0.7,0.2,1.1c0,0.4-0.1,0.8-0.2,1.1c-0.1,0.3-0.3,0.6-0.6,0.8c-0.3,0.2-0.6,0.4-1,0.5c-0.4,0.1-0.9,0.2-1.6,0.2H243.3z
		 M241.5,93.6v14.3h1.8v-5.7h4.2c1.6,0,2.8-0.4,3.6-1.1c0.8-0.8,1.2-1.8,1.2-3.2c0-1.3-0.4-2.4-1.2-3.1c-0.8-0.8-2-1.1-3.6-1.1
		H241.5z"/>
	<path class="st1" d="M278.4,285.4c-0.3-0.1-0.6-0.1-0.9-0.2c-0.3-0.1-0.5-0.2-0.8-0.4s-0.4-0.4-0.5-0.6c-0.1-0.2-0.2-0.5-0.2-0.9
		c0-0.4,0.1-0.7,0.2-1c0.2-0.3,0.4-0.5,0.7-0.7c0.3-0.2,0.6-0.4,1-0.4c0.4-0.1,0.8-0.2,1.2-0.2c1,0,1.8,0.2,2.4,0.6
		c0.5,0.4,0.9,0.9,1,1.6h1.8c-0.1-0.6-0.3-1.1-0.5-1.6c-0.3-0.5-0.6-0.9-1.1-1.2c-0.4-0.3-1-0.6-1.6-0.8c-0.6-0.2-1.3-0.3-2-0.3
		c-0.8,0-1.5,0.1-2.2,0.3c-0.6,0.2-1.1,0.5-1.6,0.9c-0.4,0.4-0.7,0.8-1,1.3s-0.3,1-0.3,1.5c0,1.1,0.3,2,1,2.6c0.7,0.6,1.6,1,2.7,1.2
		l2.5,0.5c0.4,0.1,0.7,0.2,1,0.3c0.3,0.1,0.6,0.3,0.8,0.5c0.2,0.2,0.4,0.4,0.5,0.7c0.1,0.3,0.2,0.6,0.2,1c0,0.4-0.1,0.8-0.3,1.1
		s-0.4,0.6-0.7,0.8c-0.3,0.2-0.7,0.4-1.1,0.5c-0.4,0.1-0.9,0.2-1.4,0.2c-0.5,0-1,0-1.4-0.1c-0.4-0.1-0.8-0.2-1.2-0.4
		c-0.4-0.2-0.7-0.5-0.9-0.8c-0.2-0.3-0.4-0.7-0.5-1.2h-1.8c0.1,0.6,0.2,1.2,0.5,1.7c0.3,0.5,0.7,1,1.2,1.3c0.5,0.4,1.1,0.7,1.8,0.9
		s1.4,0.3,2.3,0.3c0.9,0,1.7-0.1,2.4-0.4c0.7-0.2,1.2-0.6,1.7-1c0.4-0.4,0.8-0.8,1-1.4c0.2-0.5,0.3-1,0.3-1.6c0-0.6-0.1-1.1-0.3-1.6
		c-0.2-0.5-0.4-0.8-0.8-1.2c-0.3-0.3-0.7-0.6-1.2-0.8s-1-0.3-1.5-0.5L278.4,285.4z M269.7,289.8c-0.2,0.8-0.7,1.5-1.3,2
		c-0.6,0.5-1.5,0.7-2.5,0.7c-0.8,0-1.5-0.2-2.2-0.5c-0.6-0.3-1.1-0.7-1.5-1.3c-0.4-0.5-0.7-1.1-0.9-1.8c-0.2-0.7-0.3-1.4-0.3-2.2
		s0.1-1.5,0.3-2.2c0.2-0.7,0.5-1.3,0.9-1.8c0.4-0.5,0.9-0.9,1.5-1.3c0.6-0.3,1.3-0.5,2.1-0.5c1,0,1.8,0.2,2.3,0.6
		c0.6,0.4,1,1,1.2,1.8h1.9c-0.1-0.6-0.4-1.2-0.7-1.7c-0.3-0.5-0.7-0.9-1.2-1.3c-0.5-0.3-1-0.6-1.6-0.8c-0.6-0.2-1.3-0.3-2-0.3
		c-1.1,0-2,0.2-2.8,0.6c-0.8,0.4-1.5,0.9-2.1,1.5s-1,1.4-1.3,2.4c-0.3,0.9-0.4,1.9-0.4,2.9c0,1.1,0.1,2,0.4,3
		c0.3,0.9,0.7,1.7,1.3,2.3s1.2,1.2,2.1,1.5c0.8,0.4,1.8,0.6,2.8,0.6c0.8,0,1.5-0.1,2.1-0.3c0.6-0.2,1.2-0.5,1.7-0.9
		c0.5-0.4,0.9-0.8,1.2-1.4c0.3-0.5,0.5-1.1,0.7-1.8H269.7z M254.5,293.8h1.8v-14.3h-1.8V293.8z M252.2,279.6H241v1.6h4.7v12.7h1.8
		v-12.7h4.7V279.6z M236.9,293.8h1.8v-14.3h-1.8V293.8z M226.1,292.1v-12.6h-1.8v14.3h9.8v-1.7H226.1z M212.5,292
		c-0.6-0.3-1.1-0.7-1.5-1.3c-0.4-0.5-0.7-1.1-0.9-1.8c-0.2-0.7-0.3-1.4-0.3-2.2s0.1-1.5,0.3-2.2c0.2-0.7,0.5-1.3,0.9-1.8
		c0.4-0.5,0.9-1,1.5-1.3c0.6-0.3,1.3-0.5,2.2-0.5c0.9,0,1.6,0.2,2.2,0.5c0.6,0.3,1.1,0.7,1.5,1.3c0.4,0.5,0.7,1.1,0.9,1.8
		c0.2,0.7,0.3,1.4,0.3,2.2s-0.1,1.5-0.3,2.2c-0.2,0.7-0.5,1.3-0.9,1.8c-0.4,0.5-0.9,1-1.5,1.3c-0.6,0.3-1.3,0.5-2.2,0.5
		C213.9,292.5,213.1,292.3,212.5,292 M211.8,279.9c-0.8,0.4-1.5,0.9-2.1,1.6c-0.6,0.7-1,1.4-1.3,2.3c-0.3,0.9-0.4,1.9-0.4,2.9
		s0.1,2,0.4,2.9c0.3,0.9,0.7,1.7,1.3,2.3c0.6,0.7,1.3,1.2,2.1,1.6c0.8,0.4,1.8,0.6,2.9,0.6c1.1,0,2-0.2,2.9-0.6
		c0.8-0.4,1.5-0.9,2.1-1.6c0.6-0.7,1-1.4,1.3-2.3c0.3-0.9,0.4-1.9,0.4-2.9s-0.1-2-0.4-2.9c-0.3-0.9-0.7-1.7-1.3-2.3
		c-0.6-0.7-1.3-1.2-2.1-1.6c-0.8-0.4-1.8-0.6-2.9-0.6C213.6,279.3,212.7,279.5,211.8,279.9 M196.8,286.5v-5.4h3.9
		c0.6,0,1.1,0.1,1.6,0.2c0.4,0.1,0.8,0.3,1,0.5c0.3,0.2,0.4,0.5,0.6,0.8c0.1,0.3,0.2,0.7,0.2,1.1c0,0.4-0.1,0.8-0.2,1.1
		c-0.1,0.3-0.3,0.6-0.6,0.8c-0.3,0.2-0.6,0.4-1,0.5c-0.4,0.1-0.9,0.2-1.6,0.2H196.8z M195,279.6v14.3h1.8v-5.7h4.2
		c1.6,0,2.8-0.4,3.6-1.1c0.8-0.8,1.2-1.8,1.2-3.2c0-1.3-0.4-2.4-1.2-3.1c-0.8-0.8-2-1.1-3.6-1.1H195z"/>
	<path class="st1" d="M231.9,471.4c-0.3-0.1-0.6-0.1-0.9-0.2c-0.3-0.1-0.5-0.2-0.8-0.4c-0.2-0.2-0.4-0.4-0.5-0.6
		c-0.1-0.2-0.2-0.5-0.2-0.9c0-0.4,0.1-0.7,0.2-1c0.2-0.3,0.4-0.5,0.7-0.7c0.3-0.2,0.6-0.4,1-0.5c0.4-0.1,0.8-0.1,1.2-0.1
		c1,0,1.8,0.2,2.3,0.6c0.5,0.4,0.9,0.9,1.1,1.6h1.8c-0.1-0.6-0.3-1.1-0.5-1.6c-0.3-0.5-0.6-0.9-1.1-1.2s-1-0.6-1.6-0.8
		c-0.6-0.2-1.3-0.3-2-0.3c-0.8,0-1.5,0.1-2.2,0.3c-0.6,0.2-1.1,0.5-1.6,0.9s-0.7,0.8-1,1.3s-0.3,1-0.3,1.6c0,1.1,0.3,2,1,2.5
		c0.7,0.6,1.6,1,2.7,1.2l2.5,0.5c0.4,0.1,0.7,0.2,1,0.3c0.3,0.1,0.6,0.3,0.8,0.5c0.2,0.2,0.4,0.4,0.5,0.7c0.1,0.3,0.2,0.6,0.2,0.9
		c0,0.4-0.1,0.8-0.3,1.1c-0.2,0.3-0.4,0.6-0.7,0.8c-0.3,0.2-0.7,0.4-1.1,0.5c-0.4,0.1-0.9,0.2-1.4,0.2c-0.5,0-1,0-1.4-0.1
		c-0.4-0.1-0.8-0.2-1.2-0.4c-0.4-0.2-0.7-0.5-0.9-0.8c-0.2-0.3-0.4-0.7-0.5-1.2h-1.8c0.1,0.6,0.2,1.2,0.5,1.7c0.3,0.5,0.7,1,1.2,1.3
		c0.5,0.4,1.1,0.7,1.8,0.9c0.7,0.2,1.4,0.3,2.3,0.3c0.9,0,1.7-0.1,2.4-0.4c0.7-0.2,1.2-0.6,1.7-0.9c0.4-0.4,0.8-0.8,1-1.4
		c0.2-0.5,0.3-1,0.3-1.6c0-0.6-0.1-1.1-0.3-1.6c-0.2-0.5-0.4-0.8-0.8-1.2c-0.3-0.3-0.7-0.6-1.2-0.8c-0.5-0.2-1-0.3-1.5-0.4
		L231.9,471.4z M223.2,475.8c-0.2,0.8-0.7,1.5-1.3,2c-0.6,0.5-1.5,0.7-2.5,0.7c-0.8,0-1.5-0.2-2.2-0.5c-0.6-0.3-1.1-0.7-1.5-1.3
		c-0.4-0.5-0.7-1.1-0.9-1.8c-0.2-0.7-0.3-1.4-0.3-2.2c0-0.8,0.1-1.5,0.3-2.2c0.2-0.7,0.5-1.3,0.9-1.8c0.4-0.5,0.9-1,1.5-1.3
		c0.6-0.3,1.3-0.5,2.1-0.5c1,0,1.8,0.2,2.3,0.6c0.6,0.4,1,1,1.2,1.8h1.9c-0.1-0.6-0.4-1.2-0.7-1.7c-0.3-0.5-0.7-0.9-1.2-1.3
		c-0.5-0.3-1-0.6-1.6-0.8c-0.6-0.2-1.3-0.3-2-0.3c-1.1,0-2,0.2-2.8,0.6c-0.8,0.4-1.5,0.9-2.1,1.6s-1,1.4-1.3,2.4
		c-0.3,0.9-0.4,1.9-0.4,2.9c0,1.1,0.1,2,0.4,2.9c0.3,0.9,0.7,1.7,1.3,2.3s1.2,1.2,2.1,1.6c0.8,0.4,1.8,0.6,2.8,0.6
		c0.8,0,1.5-0.1,2.1-0.3s1.2-0.5,1.7-0.9c0.5-0.4,0.9-0.8,1.2-1.4c0.3-0.5,0.5-1.1,0.7-1.8H223.2z M208,479.8h1.8v-14.3H208V479.8z
		 M205.7,465.6h-11.2v1.6h4.7v12.7h1.8v-12.7h4.7V465.6z M190.4,479.8h1.8v-14.3h-1.8V479.8z M179.6,478.1v-12.6h-1.8v14.3h9.8v-1.7
		H179.6z M166,478c-0.6-0.3-1.1-0.7-1.5-1.3c-0.4-0.5-0.7-1.1-0.9-1.8c-0.2-0.7-0.3-1.4-0.3-2.2c0-0.7,0.1-1.5,0.3-2.2
		c0.2-0.7,0.5-1.3,0.9-1.8c0.4-0.5,0.9-1,1.5-1.3c0.6-0.3,1.3-0.5,2.2-0.5c0.9,0,1.6,0.2,2.2,0.5c0.6,0.3,1.1,0.7,1.5,1.3
		c0.4,0.5,0.7,1.1,0.9,1.8c0.2,0.7,0.3,1.4,0.3,2.2c0,0.7-0.1,1.5-0.3,2.2c-0.2,0.7-0.5,1.3-0.9,1.8c-0.4,0.5-0.9,1-1.5,1.3
		c-0.6,0.3-1.3,0.5-2.2,0.5C167.4,478.5,166.6,478.3,166,478 M165.3,465.9c-0.8,0.4-1.5,0.9-2.1,1.6c-0.6,0.7-1,1.5-1.3,2.4
		c-0.3,0.9-0.4,1.9-0.4,2.9c0,1,0.1,2,0.4,2.9c0.3,0.9,0.7,1.7,1.3,2.4c0.6,0.7,1.3,1.2,2.1,1.6c0.8,0.4,1.8,0.6,2.9,0.6
		c1.1,0,2-0.2,2.9-0.6c0.8-0.4,1.5-0.9,2.1-1.6c0.6-0.7,1-1.5,1.3-2.4c0.3-0.9,0.4-1.9,0.4-2.9c0-1-0.1-2-0.4-2.9
		c-0.3-0.9-0.7-1.7-1.3-2.4c-0.6-0.7-1.3-1.2-2.1-1.6c-0.8-0.4-1.8-0.6-2.9-0.6C167.1,465.3,166.2,465.5,165.3,465.9 M150.3,472.5
		v-5.4h3.9c0.6,0,1.1,0.1,1.6,0.2c0.4,0.1,0.8,0.3,1,0.5c0.3,0.2,0.4,0.5,0.6,0.8c0.1,0.3,0.2,0.7,0.2,1.1s-0.1,0.8-0.2,1.1
		c-0.1,0.3-0.3,0.6-0.6,0.8c-0.3,0.2-0.6,0.4-1,0.5c-0.4,0.1-0.9,0.2-1.6,0.2H150.3z M148.5,465.6v14.3h1.8v-5.7h4.2
		c1.6,0,2.8-0.4,3.6-1.1c0.8-0.8,1.2-1.8,1.2-3.2c0-1.3-0.4-2.4-1.2-3.1c-0.8-0.8-2-1.1-3.6-1.1H148.5z"/>
</g>
</svg>
